REM MD5 3a974ac54da6aeb07b6b4ab61c6a6d80
FILE "Simple 1500 Series Vol. 6 - The Hanafuda (Japan).bin" BINARY
  TRACK 01 MODE2/2352
    INDEX 01 00:00:00
  TRACK 02 AUDIO
    INDEX 00 00:18:61
    INDEX 01 00:20:61
  TRACK 03 AUDIO
    INDEX 00 02:23:54
    INDEX 01 02:25:54
  TRACK 04 AUDIO
    INDEX 00 05:17:71
    INDEX 01 05:19:71
  TRACK 05 AUDIO
    INDEX 00 08:02:10
    INDEX 01 08:04:10
  TRACK 06 AUDIO
    INDEX 00 10:25:66
    INDEX 01 10:27:66
REM LEADOUT 15:13:18
